<?xml version="1.0" encoding="utf-8"?>
<!-- Generator: Adobe Illustrator 23.0.1, SVG Export Plug-In . SVG Version: 6.00 Build 0)  -->
<svg version="1.1" id="Layer_1" xmlns="http://www.w3.org/2000/svg" xmlns:xlink="http://www.w3.org/1999/xlink" x="0px" y="0px"
	 viewBox="0 0 85 85" style="enable-background:new 0 0 85 85;" xml:space="preserve">
<style type="text/css">
	.st0{fill:#FFFFFF;}
</style>
<g>
	<path class="st0" d="M63.2,5.4c-1.1,2.7-2.1,5.3-3.2,8c0,0.2,0.1,0.3,0.1,0.5c0.2,1.7,0,3.4,0,5.1c0,0.1,0,0.2,0,0.3
		c3.5-0.4,7.3,3.2,5.1,7.4c-2.5,4.8-3.4,10.1-4.9,15.2c-1,3.4-4.2,4.1-6.8,3.1c-0.4,1.3-0.9,2.7-1.4,3.9c-0.5,4.4-1.3,8.8-4.3,12.3
		c-1.4,4.3-2.7,8.6-4.4,12.7c-2.5,5.9-10.7,3.8-9.6-2.7c0.3-1.7,0.6-3.4,0.9-5.1c-1.2,1.3-2.6,2.3-4.5,2.8c-2.6,0.7-5.4-0.9-6.2-3.5
		c-0.6-2.2-1.1-4.4-1.4-6.7c-0.1-0.1-0.2-0.3-0.2-0.4c-2-4.5-3.5-11.4-0.9-16c0.7-1.3,2.1-2.1,3.6-2.3c0.3-1.1,0.6-2.2,1-3.3
		c0.3-0.7,0.9-1.3,1.6-1.7c-0.5-5.7-0.7-11.6,2-16.8c2-3.8,8.2-2.9,9.1,1.2c0.8,3.5,1.4,7,2,10.5c1.4-3.3,2.8-6.6,4.2-9.9
		c2.7-6.2,5.5-12.4,8.4-18.5C49.9,0.5,46.2,0,42.5,0C19,0,0,19,0,42.5S19,85,42.5,85S85,66,85,42.5C85,26.5,76.2,12.6,63.2,5.4z"/>
</g>
<image style="overflow:visible;" width="1800" height="1800" xlink:href="../../hhh.png"  transform="matrix(3.908011e-02 0 0 3.627844e-02 7.96 13.64)">
</image>
</svg>
